<svg width="375" height="477" viewBox="0 0 375 477" fill="none" xmlns="http://www.w3.org/2000/svg">
<path opacity="0.4" d="M-196.309 465.938C-216.198 422.944 -236.242 376.346 -231.068 327.79C-224.708 268.008 -182.638 230.436 -123.634 225.023C-36.618 217.05 41.6991 274.306 126.023 286.934C301.251 313.187 398.672 166.465 412.621 9.10362C413.48 -0.577771 398.474 -2.95225 397.609 6.80486C388.95 104.535 352.899 209.392 258.894 255.436C159.426 304.149 62.3045 250.247 -33.2859 221.564C-92.24 203.869 -167.348 200.037 -213.188 248.996C-272.213 312.034 -241.879 403.819 -210.397 471.624C-206.284 480.466 -192.2 474.818 -196.309 465.938Z" fill="#697DDB"/>
</svg>
